<?xml version="1.0" standalone="no"?>
<!DOCTYPE svg PUBLIC "-//W3C//DTD SVG 1.1//EN" "http://www.w3.org/Graphics/SVG/1.1/DTD/svg11.dtd" >
<svg xmlns="http://www.w3.org/2000/svg" xmlns:xlink="http://www.w3.org/1999/xlink" version="1.1">
<metadata>
Created by FontForge 20170812 at Sun Nov 29 18:18:45 2009
 By www-data
Amazingmax
</metadata>
<defs>
<font id="AmazDooMLeftOutline" horiz-adv-x="333" >
  <font-face 
    font-family="AmazDooMLeftOutline"
    font-weight="400"
    font-stretch="normal"
    units-per-em="1000"
    panose-1="0 0 0 0 0 0 0 0 0 0"
    ascent="800"
    descent="-200"
    x-height="905"
    cap-height="905"
    bbox="-140 -29 515 1072"
    underline-thickness="40"
    underline-position="-100"
    unicode-range="U+0020-2116"
  />
<missing-glyph 
d="M15 308l102 77v107l185 291v73l-64 39h-237l14 -18v-126h110v36h64l-174 -297v-182zM127 226l-10 15v84l-102 -76v-74l-10 -44zM5 492l167 285h-37v-36h-130v132l-25 32h261l71 -43v-81l-185 -291v-110l-122 -92v204zM-12 105l17 72v77l122 91v-102l13 -19z" />
    <glyph glyph-name=".notdef" 
d="M15 308l102 77v107l185 291v73l-64 39h-237l14 -18v-126h110v36h64l-174 -297v-182zM127 226l-10 15v84l-102 -76v-74l-10 -44zM5 492l167 285h-37v-36h-130v132l-25 32h261l71 -43v-81l-185 -291v-110l-122 -92v204zM-12 105l17 72v77l122 91v-102l13 -19z" />
    <glyph glyph-name="glyph1" horiz-adv-x="0" 
 />
    <glyph glyph-name="glyph2" horiz-adv-x="248" 
 />
    <glyph glyph-name="space" unicode=" " horiz-adv-x="248" 
 />
    <glyph glyph-name="space" unicode="&#x45d;" horiz-adv-x="248" 
 />
    <glyph glyph-name="space" unicode="&#x40d;" horiz-adv-x="248" 
 />
    <glyph glyph-name="space" unicode="&#xa0;" horiz-adv-x="248" 
 />
    <glyph glyph-name="exclam" unicode="!" horiz-adv-x="132" 
d="M116 297l-101 -71v-102l-4 -19l118 87l-13 22v83zM15 283l101 71v523l15 18h-130l14 -18v-594zM126 216l17 -26l-148 -109l10 45v106l121 85v-101zM5 873l-24 32h170l-25 -32v-525l-121 -85v610z" />
    <glyph glyph-name="quotedbl" unicode="&#x22;" horiz-adv-x="283" 
d="M125 791l-10 15v89h-102v-155l-11 -44zM265 791l-10 15v89h-102v-155l-11 -44zM-14 670l17 72v163h122v-97l13 -19zM126 670l17 72v163h122v-97l13 -19z" />
    <glyph glyph-name="dollar" unicode="$" horiz-adv-x="325" 
d="M110 895h-73l-28 -37v-219l101 -58v-96h-101v-95l101 -80v-104l112 82v48l81 55v196l-81 43v126h81v95l-35 44h-46v117h-112v-117zM100 1022h132v-117h40l41 -50v-109h-81v-110l81 -43v-208l-81 -55v-48l-132 -96v120l-101 80v109h101v80l-101 58v229l34 43h67v117z" />
    <glyph glyph-name="quotesingle" unicode="'" horiz-adv-x="150" 
d="M125 791l-10 15v89h-102v-155l-11 -44zM-14 670l17 72v163h122v-97l13 -19z" />
    <glyph glyph-name="parenleft" unicode="(" horiz-adv-x="203" 
d="M167 895h-118l-39 -52v-585l132 -122l25 20v136l-54 48v457h54v98zM177 787h-54v-443l54 -48v-144l-35 -30l-142 132v593l45 58h132v-118z" />
    <glyph glyph-name="parenright" unicode=")" horiz-adv-x="195" 
d="M9 143l150 126v578l-41 48h-109v-98h40v-525l-40 35v-164zM-1 329l40 -35v493h-40v118h123l47 -54v-586l-170 -144v208z" />
    <glyph glyph-name="asterisk" unicode="*" horiz-adv-x="250" 
d="M66 627h91l18 -16v39l19 -18l28 43l-21 21h25v91l15 18h-28l-29 28l-9 -9v57l-17 -15h-92v-30l-32 -31h-33l13 -17v-92h32l-20 -21l28 -43l12 12v-17zM56 620l-3 -4l-40 61l9 9h-18v98l-24 31h50l26 25v36h98l31 27v-55l-1 -1l33 -32h45l-26 -32v-97h-11l10 -9l-40 -61
l-10 10v-37l-32 28h-97v3z" />
    <glyph glyph-name="plus" unicode="+" horiz-adv-x="250" 
d="M175 741l-17 -15h-92v-61h-65l13 -17v-92h52v-69h91l18 -16v85h51v91l15 18h-66v76zM185 675h77l-26 -32v-97h-51v-97l-32 28h-97v69h-52v98l-24 31h76v61h98l31 27v-88z" />
    <glyph glyph-name="comma" unicode="," horiz-adv-x="155" 
d="M124 225l-10 16v84l-102 -76v-73l-12 -120zM-14 20l16 156v78l122 91v-102l12 -18z" />
    <glyph glyph-name="hyphen" unicode="-" horiz-adv-x="250" 
d="M241 665h-240l13 -17v-92h212v91zM236 643v-97h-232v98l-24 31h282z" />
    <glyph glyph-name="hyphen" unicode="&#xad;" horiz-adv-x="250" 
d="M241 665h-240l13 -17v-92h212v91zM236 643v-97h-232v98l-24 31h282z" />
    <glyph glyph-name="period" unicode="." horiz-adv-x="155" 
d="M125 226l-10 15v84l-102 -76v-74l-11 -44zM-14 105l17 72v77l122 91v-102l13 -19z" />
    <glyph glyph-name="slash" unicode="/" horiz-adv-x="287" 
d="M132 895l11 -19l-130 -663l-18 -21l102 -88l-1 21l148 752l17 18h-129zM285 905l-31 -32l-148 -748l1 -43l-126 108l22 27l130 657l-19 31h171z" />
    <glyph glyph-name="zero" unicode="0" 
d="M123 777v-370l57 43v327h-57zM306 369l-6 10v477l-64 39h-173l-50 -46v-674l-11 -44zM190 787v-341l-77 -59v400h77zM-14 105l17 72v676l56 52h180l71 -43v-481l9 -14z" />
    <glyph glyph-name="one" unicode="1" horiz-adv-x="233" 
d="M205 895h-204l14 -18v-90h89v-647l-9 -41l125 89l-15 21v686zM215 213l18 -27l-153 -111l14 67v635h-89v96l-25 32h235v-692z" />
    <glyph glyph-name="two" unicode="2" 
d="M308 369l-6 10v133l-185 -140v120l185 291v73l-64 39h-237l14 -18v-126h110v36h64l-174 -297v-315l-10 -44zM-12 105l17 72v315l167 285h-37v-36h-130v132l-25 32h261l71 -43v-81l-185 -291v-98l185 140v-151l9 -14z" />
    <glyph glyph-name="three" unicode="3" 
d="M308 369l-6 10v150l-110 59l110 63v205l-64 39h-237l14 -18v-111h100v21h90v-92l-100 -54v-90l101 -60v-59l-89 -71v81h-102v-267l-10 -44zM-12 105l17 72v275h122v-71l69 55v49l-101 60v102l100 54v76h-70v-21h-120v117l-25 32h261l71 -43v-217l-99 -57l99 -53v-154
l9 -14z" />
    <glyph glyph-name="four" unicode="4" 
d="M193 139l-7 -27l131 89l-15 21v673h-107v-273l-80 45v228h-114l14 -18v-269l178 -107v-362zM183 495l-178 107v271l-25 32h145v-232l60 -33v265h127v-679l18 -27l-161 -111l14 53v354z" />
    <glyph glyph-name="five" unicode="5" 
d="M308 375l-6 10v133h3l-179 150v119h66v-36h110v105l-64 39h-237l14 -18v-90h1v-175l190 -171l-191 -143v-123l-10 -44zM-12 105l17 72v126l186 138l-185 167v169h-1v96l-25 32h261l71 -43v-121h-130v36h-46v-105l172 -144h4v-141l9 -14z" />
    <glyph glyph-name="six" unicode="6" 
d="M125 486v-79l57 43v36h-57zM308 375l-6 10v221h-187v181h77v-36h110v105l-64 39h-237l14 -18v-702l-10 -44zM192 496v-50l-77 -59v109h77zM-12 105l17 72v696l-25 32h261l71 -43v-121h-130v36h-57v-161h187v-229l9 -14z" />
    <glyph glyph-name="seven" unicode="7" 
d="M15 751h110v36h74l-181 -480h5l-8 -8v-158v-2l84 69l203 575v73l-64 39h-237l14 -18v-126zM5 873l-25 32h261l71 -43v-81l-204 -579l-118 -95l15 36v160l-6 -6h4l181 480h-49v-36h-130v132z" />
    <glyph glyph-name="eight" unicode="8" 
d="M127 801v-101l32 -29l35 30v100h-67zM196 399v86l-36 27l-35 -27v-145zM308 375l-6 10v144l-78 59l78 62v245h-301l14 -18v-227l79 -62l-79 -59v-354l-10 -44zM204 811v-114l-45 -40l-42 39v115h87zM115 318v171l45 35l46 -33v-96zM-12 105l17 72v358l72 53l-72 58v227
l-25 32h332v-259l-71 -58l71 -53v-148l9 -14z" />
    <glyph glyph-name="nine" unicode="9" 
d="M125 777v-104l70 -37v141h-70zM308 375l-5 8v494l15 18h-317l14 -18v-276l177 -98v-57l-77 -60v55h-100v-266l-10 -44zM205 787v-167l-90 47v120h90zM-12 105l17 72v274h120v-45l57 44v47l-177 98v278l-25 32h359l-26 -32v-488l8 -12z" />
    <glyph glyph-name="colon" unicode=":" horiz-adv-x="155" 
d="M125 576l-10 15v84l-102 -76v-74l-11 -44zM125 766l-10 15v84l-102 -76v-74l-11 -44zM-14 455l17 72v77l122 91v-102l13 -19zM-14 645l17 72v77l122 91v-102l13 -19z" />
    <glyph glyph-name="semicolon" unicode=";" horiz-adv-x="155" 
d="M125 575l-10 16v84l-102 -76v-73l-12 -111zM125 766l-10 15v84l-102 -76v-74l-11 -44zM-13 381l16 145v78l122 91v-102l12 -18zM-14 645l17 72v77l122 91v-102l13 -19z" />
    <glyph glyph-name="less" unicode="&#x3c;" horiz-adv-x="250" 
d="M15 642v-93h-3l215 -81v109l-67 24l67 24v94l12 15h-6l-218 -74v-2h-12zM-18 668h23v0l226 76h28l-22 -29v-98l-47 -16l47 -18v-129l-227 85h-5v99z" />
    <glyph glyph-name="equal" unicode="=" horiz-adv-x="250" 
d="M1 735l13 -17v-92h212v91l15 18h-240zM1 575l13 -17v-92h212v91l15 18h-240zM262 745l-26 -32v-97h-232v98l-24 31h282zM262 585l-26 -32v-97h-232v98l-24 31h282z" />
    <glyph glyph-name="greater" unicode="&#x3e;" horiz-adv-x="250" 
d="M239 658h-13v2l-218 74h-6l12 -15v-94l67 -24l-67 -24v-109l215 81h-3v93zM236 638v-99h-5l-227 -85v129l47 18l-47 16v98l-22 29h28l226 -76v0h23z" />
    <glyph glyph-name="question" unicode="?" 
d="M15 308l102 77v107l185 291v73l-64 39h-237l14 -18v-126h110v36h64l-174 -297v-182zM127 226l-10 15v84l-102 -76v-74l-10 -44zM5 492l167 285h-37v-36h-130v132l-25 32h261l71 -43v-81l-185 -291v-110l-122 -92v204zM-12 105l17 72v77l122 91v-102l13 -19z" />
    <glyph glyph-name="A" unicode="A" 
d="M125 777v-152h60v152h-60zM118 220l-3 2v285h80v-247l112 88l-5 4v504l-64 39h-237l14 -18v-744l-4 -16l116 89zM195 787v-172h-80v172h80zM140 204l-145 -113l10 44v738l-25 32h261l71 -43v-506l10 -8l-137 -108v257h-60v-271v0z" />
    <glyph glyph-name="B" unicode="B" 
d="M127 517v-126l69 55v39zM125 659l70 42v76h-70v-118zM302 529l-110 59l110 63v205l-64 39h-237l14 -18v-701l-10 -44l307 245v-1l-3 -3l-7 6v150zM206 491v-49l-89 -71v162zM115 787h90v-92l-90 -54v146zM312 383l12 -10l-22 -17v1l-314 -251l17 72v695l-25 32h261
l71 -43v-217l-99 -57l99 -53v-152z" />
    <glyph glyph-name="C" unicode="C" 
d="M302 489h-110v-44l-77 -56v398h77v-24h110v93l-64 39h-237l14 -18v-701l-10 -44l307 245v-1l-3 -3l-7 6v110zM312 383l12 -10l-22 -17v1l-314 -251l17 72v695l-25 32h261l71 -43v-109h-130v24h-57v-368l57 42v48h130v-116z" />
    <glyph glyph-name="D" unicode="D" 
d="M1 895l14 -18v-736v-2l287 230v487l-64 39h-237zM125 777v-370l57 43v327h-57zM241 905l71 -43v-497l-322 -258l15 36v730l-25 32h261zM192 787v-341l-77 -59v400h77z" />
    <glyph glyph-name="E" unicode="E" 
d="M302 489h-110v-44l-77 -56v168h115v108h-115v122h77v-24h110v93l-64 39h-237l14 -18v-701l-10 -44l307 245v-1l-3 -3l-7 6v110zM312 383l12 -10l-22 -17v1l-314 -251l17 72v695l-25 32h261l71 -43v-109h-130v24h-57v-102h115v-128h-115v-138l57 42v48h130v-116z" />
    <glyph glyph-name="F" unicode="F" 
d="M11 104l119 87l-15 21v305h115v108h-115v162h77v-24h110v132h-301l14 -18v-755zM5 124v749l-25 32h332v-152h-130v24h-57v-142h115v-128h-115v-291l18 -27l-147 -109z" />
    <glyph glyph-name="G" unicode="G" 
d="M302 369v246h-146v-108h36v-62l-77 -56v398h77v-24h110v93l-64 39h-237l14 -18v-736v-2l169 136zM191 267l-201 -160l15 36v730l-25 32h261l71 -43v-109h-130v24h-57v-368l57 42v46h-36v128h166v-260z" />
    <glyph glyph-name="H" unicode="H" 
d="M195 260l113 89l-6 10v536h-108v-280h-79v280h-114l14 -18v-722l-10 -43l-5 -4l34 25l93 73l-12 18v283h80v-247zM185 497h-60v-271l15 -22l-100 -79l-33 -25l-19 -16l17 73v716l-25 32h145v-280h59v280h128v-544l9 -14l-136 -107v257z" />
    <glyph glyph-name="I" unicode="I" horiz-adv-x="132" 
d="M116 930v87l15 18h-130l14 -18v-87h101zM11 105l118 87l-13 22v681h-101v-771zM5 920v93l-24 32h170l-25 -32v-93h-121zM5 126v779h121v-689l17 -26l-148 -109z" />
    <glyph glyph-name="J" unicode="J" 
d="M301 895h-110v-623l-77 68v66h-117l14 -23v-129l132 -123l158 134v630zM301 933v79l15 23h-139l14 -23v-79h110zM311 261l-168 -144l-142 133v131l-23 35h146v-72l57 -50v611h130v-644zM181 923v87l-23 35h177l-24 -35v-87h-130z" />
    <glyph glyph-name="K" unicode="K" 
d="M193 257l116 89l-7 14v169l-110 59l110 63v244h-107v-207l-80 -47v254h-114l14 -18v-721l-10 -44l122 94l-10 15v313l76 -43v-234zM183 485l-56 31v-293l13 -19l-152 -118l17 72v715l-25 32h145v-246l60 35v211h127v-260l-99 -57l99 -53v-173l10 -18l-139 -107v248z" />
    <glyph glyph-name="L" unicode="L" 
d="M130 895h-129l14 -18v-736v-2l287 230v120h-110v-43l-77 -60v491zM125 873v-467l57 44v49h130v-134l-322 -258l15 36v730l-25 32h171z" />
    <glyph glyph-name="M" unicode="M" horiz-adv-x="385" 
d="M265 297l95 71l-4 4v505l6 18h-117l-62 -167l-65 167h-119l14 -23v-724l-10 -47l54 40l64 48l-14 20v296l78 -211l80 287v-284zM255 509l-69 -247l-69 187v-236l18 -26l-72 -54l-75 -56l15 73v720l-23 35h145l58 -149l55 149h138l-10 -30v-499l10 -8l-121 -91v232z" />
    <glyph glyph-name="N" unicode="N" 
d="M195 280l113 87l-6 5v523h-110v-243l-77 235v8h-114l14 -18v-713l-6 -28l116 89l-10 15v303l80 -260v-3zM185 281l-60 196v-235l13 -19l-146 -113l13 56v707l-25 32h145v-16l57 -175v191h130v-529l11 -9l-138 -107v21z" />
    <glyph glyph-name="O" unicode="O" 
d="M46 895l-39 -52v-585l132 -122l158 133v578l-41 48h-210zM120 787v-443l57 -50v493h-57zM260 905l47 -54v-586l-168 -143l-142 132v593l45 58h218zM187 797v-525l-77 68v457h77z" />
    <glyph glyph-name="P" unicode="P" 
d="M125 549l70 42v186h-70v-228zM133 236h-16v182l185 103v335l-64 39h-237l14 -18v-736v-1zM115 787h90v-202l-90 -54v256zM-10 106l15 37v730l-25 32h261l71 -43v-347l-185 -103v-166h34z" />
    <glyph glyph-name="Q" unicode="Q" 
d="M177 390v397h-57v-443l4 -3l56 46zM273 137v112l24 20v578l-41 48h-210l-39 -52v-585l132 -122l79 66zM180 373l-56 -46l-14 13v457h77v-431zM216 188l-77 -66l-142 132v593l45 58h218l47 -54v-586l-24 -20v-136z" />
    <glyph glyph-name="R" unicode="R" 
d="M125 659l70 42v76h-70v-118zM8 113l123 90l-14 19v311l86 -45v-230l103 75l-4 4v192l-110 59l110 63v205l-64 39h-237l14 -18v-738zM115 787h90v-92l-90 -54v146zM5 141v732l-25 32h261l71 -43v-217l-99 -57l99 -53v-194l10 -8l-129 -95v244l-66 35v-291l17 -25
l-153 -114z" />
    <glyph glyph-name="S" unicode="S" 
d="M1 895l14 -18v-285l177 -100v-47l-77 -56v76h-100v-324v-2l287 230v160l-187 101v157h77v-24h110v93l-64 39h-237zM241 905l71 -43v-109h-130v24h-57v-141l187 -101v-170l-322 -258l15 36v332h120v-66l57 42v35l-177 100v287l-25 32h261z" />
    <glyph glyph-name="T" unicode="T" 
d="M104 140l-9 -41l125 89l-15 21v578h97v90l15 18h-316l14 -18v-90h89v-647zM94 777h-89v96l-25 32h358l-26 -32v-96h-97v-564l18 -27l-153 -111l14 67v635z" />
    <glyph glyph-name="U" unicode="U" horiz-adv-x="336" 
d="M190 895v-623l-77 68v555h-103v-637l132 -122l158 133v626h-110zM310 905v-640l-168 -143l-142 132v651h123v-561l57 -50v611h130z" />
    <glyph glyph-name="V" unicode="V" 
d="M202 445l-87 -63v513h-114l14 -18v-736v-2l287 230v526h-100v-450zM192 905h120v-540l-322 -258l15 36v730l-25 32h145v-503l67 49v454z" />
    <glyph glyph-name="W" unicode="W" horiz-adv-x="418" 
d="M3 102l116 89l-12 18v61l77 195l59 -181l119 92l-6 6v495l6 18h-97v-216l-79 218l-79 -290v288h-108l14 -23v-724zM3 150v720l-23 35h137v-222l68 248l70 -196v170h121l-10 -30v-489l12 -10l-140 -108l-55 167l-66 -167v-55l16 -24l-146 -111z" />
    <glyph glyph-name="X" unicode="X" 
d="M7 102l123 88l-15 21v278l45 35l46 -33v-245l102 75l-6 6v202l-78 59l78 62v245h-98v-198l-45 -40l-42 39v199h-116l14 -18v-227l79 -62l-79 -59v-388zM5 143v392l72 53l-72 58v227l-25 32h147v-205l32 -29l35 30v204h118v-259l-71 -58l71 -53v-204l12 -10l-128 -95v259
l-36 27l-35 -27v-270l18 -27l-151 -110z" />
    <glyph glyph-name="Y" unicode="Y" horiz-adv-x="331" 
d="M108 123l13 25l-9 -8l-5 -21l125 89l-15 21v228h93v438h-94v-330h-107v330h-108l14 -18v-420h100v-300zM105 159v288h-100v426l-25 32h139v-330h87v330h114v-458h-93v-214l18 -27l-154 -111l4 13l-11 -10l15 29z" />
    <glyph glyph-name="Z" unicode="Z" 
d="M304 710h-2v146l-64 39h-237l14 -18v-146h90v56h97v-82l-187 -282v-282v-2l287 230v133h-90v-56l-97 -81v63zM125 424v-37l77 63v62h110v-147l-322 -258l15 36v284l187 282v68h-77v-56h-110v152l-25 32h261l71 -43v-162h-3z" />
    <glyph glyph-name="bracketleft" unicode="[" horiz-adv-x="202" 
d="M166 895h-157v-637l157 -125v168l-54 38v458h54v98zM176 787h-54v-442l54 -38v-194l-177 141v651h177v-118z" />
    <glyph glyph-name="backslash" unicode="\" horiz-adv-x="287" 
d="M4 895l17 -18l149 -752v-21l101 88l-17 21l-132 663l12 19h-130zM152 905l-19 -31l130 -657l22 -27l-125 -108v43l-148 748l-31 32h171z" />
    <glyph glyph-name="bracketright" unicode="]" horiz-adv-x="195" 
d="M9 143l150 126v626h-150v-98h40v-525l-40 35v-164zM-1 329l40 -35v493h-40v118h170v-640l-170 -144v208z" />
    <glyph glyph-name="underscore" unicode="_" horiz-adv-x="250" 
d="M241 325h-240l13 -17v-92h212v91zM236 303v-97h-232v98l-24 31h282z" />
    <glyph glyph-name="grave" unicode="`" horiz-adv-x="314" 
d="M144 646q-8 8 -17 13t-19 5q-15 0 -23.5 -9t-8.5 -23q0 -9 3 -15.5t12 -12.5q2 -4 8 -8t22 -13l118 -73l8 9zM259 519l-18 -23l-126 79q-16 9 -22 13t-10 8q-9 8 -13 16.5t-4 19.5q0 18 11.5 30t30.5 12q12 0 23 -6t21 -16z" />
    <glyph glyph-name="a" unicode="a" horiz-adv-x="325" 
d="M181 615v161h-57v-161h57zM191 496v-190l112 84v463l-42 42h-212l-40 -45v-460l105 -84v190h77zM114 605v181h77v-181h-77zM124 486v-200l-125 100v468l46 51h220l48 -48v-471l-132 -100v200h-57z" />
    <glyph glyph-name="b" unicode="b" horiz-adv-x="325" 
d="M181 733v43h-57v-77zM220 634l83 46v173l-42 42h-212l-40 -45v-460l134 -107l160 118v186zM124 565v-94l57 -48v106zM114 681v105h77v-59zM313 593v-198l-170 -124l-144 115v468l46 51h220l48 -48v-183l-73 -40zM191 535v-134l-77 66v116z" />
    <glyph glyph-name="c" unicode="c" horiz-adv-x="325" 
d="M303 720v133l-42 42h-212l-40 -45v-460l134 -107l160 118v117h-112v-117l-77 66v319h77v-66h112zM181 710v66h-57v-305l57 -48v105h132v-133l-170 -124l-144 115v468l46 51h220l48 -48v-147h-132z" />
    <glyph glyph-name="d" unicode="d" horiz-adv-x="325" 
d="M8 895l1 -597l294 203v352l-42 42h-253zM124 776v-268l57 37v231h-57zM265 905l48 -48v-362l-314 -217l-1 627h267zM191 786v-247l-77 -49v296h77z" />
    <glyph glyph-name="e" unicode="e" horiz-adv-x="325" 
d="M179 566v112h-65v108h77v-66h112v133l-42 42h-212l-40 -45v-460l134 -107l160 118v117h-112v-117l-77 66v99h65zM124 556v-85l57 -48v105h132v-133l-170 -124l-144 115v468l46 51h220l48 -48v-147h-132v66h-57v-88h65v-132h-65z" />
    <glyph glyph-name="f" unicode="f" horiz-adv-x="325" 
d="M114 566h65v112h-65v108h77v-66h112v133l-42 42h-212l-40 -45v-460l105 -84v260zM124 286l-125 100v468l46 51h220l48 -48v-147h-132v66h-57v-88h65v-132h-65v-270z" />
    <glyph glyph-name="g" unicode="g" horiz-adv-x="325" 
d="M191 401l-77 66v319h77v-66h112v133l-42 42h-212l-40 -45v-460l134 -107l160 118v207h-155v-97h43v-110zM181 501h-43v117h175v-223l-170 -124l-144 115v468l46 51h220l48 -48v-147h-132v66h-57v-305l57 -48v78z" />
    <glyph glyph-name="h" unicode="h" horiz-adv-x="325" 
d="M191 675h-77v220h-105v-505l105 -84v240h77v-240l112 84v505h-112v-220zM181 905h132v-519l-132 -100v250h-57v-250l-125 100v519h125v-220h57v220z" />
    <glyph glyph-name="i" unicode="i" horiz-adv-x="144" 
d="M10 319l112 82v494h-112v-576zM122 931v94h-112v-94h112zM0 905h132v-510l-132 -96v606zM0 921v114h132v-114h-132z" />
    <glyph glyph-name="j" unicode="j" horiz-adv-x="326" 
d="M192 895v-494l-77 66v34h-105v-111l134 -107l160 118v494h-112zM304 931v94h-112v-94h112zM314 905v-510l-170 -124l-144 115v125h125v-40l57 -48v482h132zM182 921v114h132v-114h-132z" />
    <glyph glyph-name="k" unicode="k" horiz-adv-x="325" 
d="M114 895h-105v-504l105 -67v259l77 -48v-216l112 82v186l-83 47l83 46v215h-112v-168l-77 -46v214zM124 699l57 34v172h132v-231l-73 -40l73 -41v-198l-132 -96v230l-57 36v-259l-125 79v520h125v-206z" />
    <glyph glyph-name="l" unicode="l" horiz-adv-x="326" 
d="M115 895h-105v-505l134 -107l160 118v117h-112v-117l-77 66v428zM125 471l57 -48v105h132v-133l-170 -124l-144 115v519h125v-434z" />
    <glyph glyph-name="m" unicode="m" horiz-adv-x="446" 
d="M207 706l-83 189h-114v-494l112 -82v298l95 -209l85 214v-303l112 82v494h-114zM294 905h130v-510l-132 -96v271l-75 -188l-85 189v-272l-132 96v510h130l77 -175z" />
    <glyph glyph-name="n" unicode="n" horiz-adv-x="325" 
d="M199 304l104 83v508h-105v-219l-74 219h-115v-505l112 -84v255zM131 493v-207l-132 100v519h133l56 -167v167h125v-522l-120 -95z" />
    <glyph glyph-name="o" unicode="o" horiz-adv-x="325" 
d="M49 895l-40 -45v-460l134 -107l160 118v452l-42 42h-212zM124 776v-305l57 -48v353h-57zM265 905l48 -48v-462l-170 -124l-144 115v468l46 51h220zM191 786v-385l-77 66v319h77z" />
    <glyph glyph-name="p" unicode="p" horiz-adv-x="325" 
d="M131 782v-122l57 43v79h-57zM46 895l-37 -43v-462l112 -84v193l182 132v223l-44 41h-213zM198 792v-95l-77 -57v152h77zM263 905l50 -47v-233l-182 -132v-207l-132 100v470l43 49h221z" />
    <glyph glyph-name="q" unicode="q" horiz-adv-x="325" 
d="M181 502v274h-57v-305l12 -10l49 37zM204 288l83 69l-16 20l32 24v452l-42 42h-212l-40 -45v-460l134 -107l40 30zM185 484l-49 -35l-22 18v319h77v-308zM181 299l-38 -28l-144 115v468l46 51h220l48 -48v-462l-28 -20l16 -20l-99 -81z" />
    <glyph glyph-name="r" unicode="r" horiz-adv-x="325" 
d="M37 895l-28 -37v-467l105 -76v268l77 -48v-217l112 73v196l-83 47l83 46v171l-35 44h-231zM124 782v-83l57 34v49h-57zM272 905l41 -50v-181l-73 -40l73 -41v-208l-132 -85v229l-57 36v-270l-125 90v477l34 43h239zM191 792v-65l-77 -46v111h77z" />
    <glyph glyph-name="s" unicode="s" horiz-adv-x="325" 
d="M144 283l159 108v196l-189 100v105h77v-36h112v95l-35 44h-231l-28 -37v-219l182 -104v-133l-77 66v17h-105v-95zM-1 386v109h125v-23l57 -48v105l-182 104v229l34 43h239l41 -50v-109h-132v36h-57v-89l189 -100v-208l-169 -114z" />
    <glyph glyph-name="t" unicode="t" horiz-adv-x="320" 
d="M296 766v129h-287v-129h87v-460l112 84v376h88zM218 756v-370l-132 -100v470h-87v149h307v-149h-88z" />
    <glyph glyph-name="u" unicode="u" horiz-adv-x="326" 
d="M192 401l-77 66v428h-105v-505l134 -107l160 118v494h-112v-494zM182 905h132v-510l-170 -124l-144 115v519h125v-434l57 -48v482z" />
    <glyph glyph-name="v" unicode="v" horiz-adv-x="326" 
d="M192 439l-77 88v368h-105v-445l134 -165l160 175v435h-112v-456zM182 905h132v-449l-170 -187l-144 177v459h125v-374l57 -66v440z" />
    <glyph glyph-name="w" unicode="w" horiz-adv-x="326" 
d="M245 300l166 89v506h-112v-465l-35 35v430h-112v-465l-37 37v428h-105v-504l159 -94l40 53zM209 334l-38 -51l-171 102v520h125v-434l17 -17v451h132v-436l15 -15v451h132v-522l-178 -95z" />
    <glyph glyph-name="x" unicode="x" horiz-adv-x="332" 
d="M122 727v168h-112v-215l83 -46l-83 -47v-186l112 -82v216l38 24l38 -24v-216l112 82v186l-83 47l83 46v215h-112v-168l-38 -23zM160 716l28 17v172h132v-231l-73 -40l73 -41v-198l-132 -96v230l-28 18l-28 -18v-230l-132 96v198l73 41l-73 40v231h132v-172z" />
    <glyph glyph-name="y" unicode="y" horiz-adv-x="325" 
d="M303 895h-112v-190h-77v190h-105v-319h182v-175l-77 66v50h-105v-127l134 -107l160 118v494zM313 395l-170 -124l-144 115v141h125v-56l57 -48v143h-182v339h125v-190h57v190h132v-510z" />
    <glyph glyph-name="z" unicode="z" horiz-adv-x="325" 
d="M9 390l135 -107l159 108v90h-112v-79l-77 66v24l189 261v98l-35 44h-231l-28 -37v-95h105v29h77v-43l-182 -261v-98zM-1 492l182 261v29h-57v-29h-125v109l34 43h239l41 -50v-106l-189 -261v-16l57 -48v67h132v-106l-169 -114l-145 115v106z" />
    <glyph glyph-name="bar" unicode="|" horiz-adv-x="132" 
d="M15 14l-4 -19l118 87l-13 22v913l15 18h-130l14 -18v-1003zM5 1013l-24 32h170l-25 -32v-907l17 -26l-148 -109l10 45v997z" />
    <glyph glyph-name="afii10017" unicode="&#x410;" 
d="M125 777v-152h60v152h-60zM11 117l116 89l-12 16v285h80v-247l112 88l-5 4v504l-64 39h-237l14 -18v-744zM195 787v-172h-80v172h80zM5 135v738l-25 32h261l71 -43v-506l10 -8l-137 -108v257h-60v-271l15 -22l-145 -113z" />
    <glyph glyph-name="afii10018" unicode="&#x411;" 
d="M125 587v-213l58 47v134zM302 619l-187 98v70h187v91l19 17h-320l14 -18v-701l-10 -44l2 2l305 243v-1l-3 -3l-7 6v240zM193 561v-144l-78 -63v249zM312 383l12 -10l-22 -17v1l-288 -231l-26 -20l17 72v695l-25 32h368l-36 -31v-97h-187v-54l187 -98v-242z" />
    <glyph glyph-name="afii10019" unicode="&#x412;" 
d="M127 517v-126l69 55v39zM125 659l70 42v76h-70v-118zM302 529l-110 59l110 63v205l-64 39h-237l14 -18v-701l-10 -44l307 245v-1l-3 -3l-7 6v150zM206 491v-49l-89 -71v162zM115 787h90v-92l-90 -54v146zM312 383l12 -10l-22 -17v1l-314 -251l17 72v695l-25 32h261
l71 -43v-217l-99 -57l99 -53v-152z" />
    <glyph glyph-name="afii10020" unicode="&#x413;" 
d="M11 104l119 87l-15 21v575h77v-24h110v132h-301l14 -18v-755zM5 124v749l-25 32h332v-152h-130v24h-57v-561l18 -27l-147 -109z" />
    <glyph glyph-name="afii10021" unicode="&#x414;" horiz-adv-x="448" 
d="M14 225v-151l-11 -46l111 71v66l214 131v-37l-11 -36l111 71v179l-60 -38v460h-218l-69 -86v-542zM251 376v401h-48l-12 -16v-419zM71 273v540l74 92h233v-452l60 38v-203l-138 -87l18 60v17l-194 -119v-66l-137 -87l17 70v155zM181 324v441l17 22h63v-417z" />
    <glyph glyph-name="afii10022" unicode="&#x415;" 
d="M302 489h-110v-44l-77 -56v168h115v108h-115v122h77v-24h110v93l-64 39h-237l14 -18v-701l-10 -44l307 245v-1l-3 -3l-7 6v110zM312 383l12 -10l-22 -17v1l-314 -251l17 72v695l-25 32h261l71 -43v-109h-130v24h-57v-102h115v-128h-115v-138l57 42v48h130v-116z" />
    <glyph glyph-name="afii10024" unicode="&#x416;" horiz-adv-x="385" 
d="M12 649l36 -61l-36 -57v-402l-7 -17l99 74v303l27 59v-332l-3 -13l105 80v266l26 -60v-186l98 75l-6 12v141l-36 57l36 61v228l19 24v-6h-109v-205l-30 -62v267h-100v-265l-29 60v205h-109v6l19 -24v-228zM2 873l-19 24v8h129v-213l9 -18v231h120v-233l10 20v213h129v-8
l-19 -24v-226l-34 -59l34 -55v-141l8 -18l-120 -91v204l-6 14v-222l-131 -100l9 39v284l-7 -15v-307l-131 -98l19 49v402l34 55l-34 59v226z" />
    <glyph glyph-name="afii10025" unicode="&#x417;" 
d="M302 529l-110 59l110 63v205l-64 39h-237l14 -18v-111h100v21h90v-92l-100 -54v-90l101 -60v-60l-89 -59v80h-102v-276l-10 -44l307 245v-1l-3 -3l-7 6v150zM312 383l12 -10l-22 -17v1l-314 -251l17 72v284h122v-72l69 47v48l-101 60v102l100 54v76h-70v-21h-120v117
l-25 32h261l71 -43v-217l-99 -57l99 -53v-152z" />
    <glyph glyph-name="afii10026" unicode="&#x418;" 
d="M9 137l114 88l-5 7l74 276v-229l113 88l-3 3v525h-111l-76 -285v285h-114l14 -18v-721zM5 158v715l-25 32h145v-219l59 219h128v-531l9 -7l-139 -108v173l-53 -198l7 -11l-148 -114z" />
    <glyph glyph-name="afii10027" unicode="&#x419;" 
d="M290 936v71l15 19h-289l14 -19v-71h260zM9 137l114 88l-5 7l74 276v-229l113 88l-3 3v525h-111l-76 -285v285h-114l14 -18v-721zM20 926v77l-23 33h327l-24 -33v-77h-280zM5 158v715l-25 32h145v-219l59 219h128v-531l9 -7l-139 -108v173l-53 -198l7 -11l-148 -114z" />
    <glyph glyph-name="afii10028" unicode="&#x41a;" 
d="M193 257l116 89l-7 14v169l-110 59l110 63v244h-107v-207l-80 -47v254h-114l14 -18v-721l-10 -44l122 94l-10 15v313l76 -43v-234zM183 485l-56 31v-293l13 -19l-152 -118l17 72v715l-25 32h145v-246l60 35v211h127v-260l-99 -57l99 -53v-173l10 -18l-139 -107v248z" />
    <glyph glyph-name="afii10029" unicode="&#x41b;" 
d="M112 224v541l18 22h62v-527l112 87l-5 5v543h-217l-70 -86v-667l-5 -27l117 91zM137 204l-144 -113l9 51v671l75 92h232v-549l11 -9l-138 -107v537h-47l-13 -16v-535z" />
    <glyph glyph-name="afii10030" unicode="&#x41c;" horiz-adv-x="385" 
d="M265 297l95 71l-4 4v505l6 18h-117l-62 -167l-65 167h-119l14 -23v-724l-10 -47l54 40l64 48l-14 20v296l78 -211l80 287v-284zM255 509l-69 -247l-69 187v-236l18 -26l-72 -54l-75 -56l15 73v720l-23 35h145l58 -149l55 149h138l-10 -30v-499l10 -8l-121 -91v232z" />
    <glyph glyph-name="afii10031" unicode="&#x41d;" 
d="M195 260l113 89l-6 10v536h-108v-280h-79v280h-114l14 -18v-722l-10 -43l-5 -4l34 25l93 73l-12 18v283h80v-247zM185 497h-60v-271l15 -22l-100 -79l-33 -25l-19 -16l17 73v716l-25 32h145v-280h59v280h128v-544l9 -14l-136 -107v257z" />
    <glyph glyph-name="afii10032" unicode="&#x41e;" 
d="M46 895l-39 -52v-585l132 -122l158 133v578l-41 48h-210zM120 787v-443l57 -50v493h-57zM260 905l47 -54v-586l-168 -143l-142 132v593l45 58h218zM187 797v-525l-77 68v457h77z" />
    <glyph glyph-name="afii10033" unicode="&#x41f;" 
d="M195 259l115 89l-8 12v500l-46 35h-255l14 -18v-721l-11 -45l5 3l118 92l-12 18v563h80v-528zM185 777h-60v-551l15 -22l-125 -98l-27 -19l17 71v715l-25 32h279l53 -39v-504l11 -16l-138 -107v538z" />
    <glyph glyph-name="afii10034" unicode="&#x420;" 
d="M125 549l70 42v186h-70v-228zM133 236h-16v182l185 103v335l-64 39h-237l14 -18v-736v-1zM115 787h90v-202l-90 -54v256zM-10 106l15 37v730l-25 32h261l71 -43v-347l-185 -103v-166h34z" />
    <glyph glyph-name="afii10035" unicode="&#x421;" 
d="M115 787h77v-24h110v93l-64 39h-237l14 -18v-701l-10 -44l307 245v-1l-3 -3l-7 6v110h-110v-44l-77 -56v398zM125 409l57 42v48h130v-116l12 -10l-22 -17v1l-314 -251l17 72v695l-25 32h261l71 -43v-109h-130v24h-57v-368z" />
    <glyph glyph-name="afii10036" unicode="&#x422;" 
d="M104 140l-9 -41l125 89l-15 21v578h97v90l15 18h-316l14 -18v-90h89v-647zM94 777h-89v96l-25 32h358l-26 -32v-96h-97v-564l18 -27l-153 -111l14 67v635z" />
    <glyph glyph-name="afii10037" unicode="&#x423;" 
d="M115 389v60h-100v-273l-10 -44l307 245v-1l-3 -3l-7 6v516h-107v-343l-80 45v298h-114l14 -18v-339l177 -90zM173 446l-168 86v341l-25 32h145v-302l60 -33v335h127v-522l12 -10l-22 -17v1l-314 -251l17 72v281h120v-50z" />
    <glyph glyph-name="afii10038" unicode="&#x424;" horiz-adv-x="399" 
d="M247 777v-221l10 14v207h-10zM74 895l-64 -39v-336l127 -101v-278l-1 -1l119 96h-16v181l125 103v336l-64 39h-226zM127 556v221h-10v-207zM267 787v-221l-30 -42v263h30zM302 905l72 -43v-346l-125 -103v-167h34l-171 -140l15 37v272l-127 101v346l72 43h230zM107 566
v221h30v-263z" />
    <glyph glyph-name="afii10039" unicode="&#x425;" 
d="M7 102l123 88l-15 21v278l45 35l46 -33v-245l102 75l-6 6v202l-78 59l78 62v245h-98v-198l-45 -40l-42 39v199h-116l14 -18v-227l79 -62l-79 -59v-388zM5 143v392l72 53l-72 58v227l-25 32h147v-205l32 -29l35 30v204h118v-259l-71 -58l71 -53v-204l12 -10l-128 -95v259
l-36 27l-35 -27v-270l18 -27l-151 -110z" />
    <glyph glyph-name="afii10040" unicode="&#x426;" horiz-adv-x="323" 
d="M193 190l115 89l-6 10v606h-110v-450l-77 -56v506h-114l14 -18v-701l-10 -44l188 150v-92zM183 262l-195 -156l17 72v695l-25 32h145v-496l57 42v454h130v-614l9 -14l-138 -107v92z" />
    <glyph glyph-name="afii10041" unicode="&#x427;" 
d="M193 139l-7 -27l131 89l-15 21v673h-107v-343l-80 45v298h-114l14 -18v-339l178 -107v-292zM183 425l-178 107v341l-25 32h145v-302l60 -33v335h127v-679l18 -27l-161 -111l14 53v284z" />
    <glyph glyph-name="afii10042" unicode="&#x428;" horiz-adv-x="385" 
d="M362 376l-6 6v495l6 18h-97v-486l-34 -26v490l7 22h-98v-580l-33 -24v604h-108l14 -23v-724l-10 -47zM-13 77l16 73v720l-23 35h137v-594l13 10v584h121l-10 -34v-468l14 11v491h121l-10 -30v-489l12 -10z" />
    <glyph glyph-name="afii10043" unicode="&#x429;" horiz-adv-x="385" 
d="M266 235l97 70l-6 19v552l6 19h-98v-486l-34 -26v490l7 22h-98v-580l-33 -24v604h-108l14 -23v-724l-10 -47l263 202v-68zM256 283l-269 -206l16 73v720l-23 35h137v-594l13 10v584h121l-10 -34v-468l14 11v491h121l-9 -31v-548l7 -25l-118 -86v68z" />
    <glyph glyph-name="afii10044" unicode="&#x42a;" horiz-adv-x="393" 
d="M187 567v-176l69 55v89zM362 589l-187 98v208h-174l14 -18v-80h60v-622l-10 -44l304 241l-7 6v211zM266 541v-99l-89 -71v212zM372 382l12 -10l-336 -267l17 72v610h-60v86l-25 32h205v-212l187 -98v-213z" />
    <glyph glyph-name="afii10045" unicode="&#x42b;" horiz-adv-x="429" 
d="M127 566v-185l49 36v118zM304 360l116 89l-12 14v414l15 18h-117v-522zM5 132l277 211v246l-167 98v208h-114l14 -18v-701zM186 541v-130l-69 -50v223zM296 373v532h148l-26 -32v-406l17 -20l-146 -111zM5 178v695l-25 32h145v-212l167 -98v-256l-304 -233z" />
    <glyph glyph-name="afii10046" unicode="&#x42c;" 
d="M127 567v-176l69 55v89zM302 589l-187 98v208h-114l14 -18v-701l-10 -44l304 241l-7 6v210zM206 541v-99l-89 -71v212zM312 383l12 -10l-336 -267l17 72v695l-25 32h145v-212l187 -98v-212z" />
    <glyph glyph-name="afii10047" unicode="&#x42d;" 
d="M302 856l-64 39h-237l14 -18v-111h100v21h90v-148h-100v-86h101v-122l-89 -59v80h-102v-276l-10 -44l304 241l-7 6v477zM312 383l12 -10l-336 -267l17 72v284h122v-72l69 47v106h-101v106h100v128h-70v-21h-120v117l-25 32h261l71 -43v-479z" />
    <glyph glyph-name="afii10048" unicode="&#x42e;" horiz-adv-x="418" 
d="M253 787v-293l27 -36v329h-27zM255 286l147 110l-2 1v450l-41 48h-179l-40 -52v-228h-25v280h-114l14 -18v-754l-4 -19l38 28l81 60l-15 20v295h25v-79zM290 797v-369l-47 62v307h47zM130 424v73h-5v-281l18 -26l-88 -66l-59 -44l9 45v748l-25 32h145v-280h5v222l45 58
h189l46 -54v-450l7 -7l-163 -122z" />
    <glyph glyph-name="afii10049" unicode="&#x42f;" horiz-adv-x="324" 
d="M192 777h-70v-76l70 -42v118zM204 259l101 76l-3 2v519l-64 39h-237l14 -18v-226l111 -63l-96 -51h-14l-1 -390l-8 -35l123 92l-12 19v265l86 45v-274zM202 641l-90 54v92h90v-146zM194 517l-66 -35v-257l15 -23l-152 -114l14 61l1 378h-16l115 61l-100 57v228l-25 32
h261l71 -43v-521l8 -8l-126 -94v278z" />
    <glyph glyph-name="CyrHardG" unicode="&#xa5;" 
d="M260 1030l5 18l-119 -87l14 -21v-45h-159l14 -18v-755l-4 -18l119 87l-15 21v575h77v-24h110v132h-42v135zM270 905h42v-152h-130v24h-57v-561l18 -27l-147 -109l9 44v749l-25 32h170v31l-17 27l147 109l-10 -44v-123z" />
    <glyph glyph-name="CyrHardG" unicode="&#x490;" 
d="M260 1030l5 18l-119 -87l14 -21v-45h-159l14 -18v-755l-4 -18l119 87l-15 21v575h77v-24h110v132h-42v135zM270 905h42v-152h-130v24h-57v-561l18 -27l-147 -109l9 44v749l-25 32h170v31l-17 27l147 109l-10 -44v-123z" />
    <glyph glyph-name="glyph146" unicode="&#x433;" horiz-adv-x="325" 
d="M114 786h189v109h-294v-505l105 -84v480zM124 286l-125 100v519h314v-129h-189v-490z" />
    <glyph glyph-name="cyrhardg" unicode="&#x491;" horiz-adv-x="325" 
d="M267 1037l-105 -84v-58h-153v-505l105 -84v480h189v109h-36v142zM277 905h36v-129h-189v-490l-125 100v519h153v52l125 100v-152z" />
    <glyph glyph-name="afii10053" unicode="&#x404;" 
d="M56 895l-43 -39v-680l-10 -44l307 245v-1l-4 -3l-6 6v110h-110v-44l-77 -56v168h115v108h-115v122h77v-24h110v93l-64 39h-180zM239 905l71 -43v-109h-130v24h-57v-102h115v-128h-115v-138l57 42v48h130v-116l12 -10l-22 -17v1l-314 -251l17 72v682l49 45h187z" />
    <glyph glyph-name="afii10101" unicode="&#x454;" horiz-adv-x="325" 
d="M179 566v112h-65v108h77v-66h112v133l-42 42h-212l-40 -45v-460l134 -107l160 118v117h-112v-117l-77 66v99h65zM124 556v-85l57 -48v105h132v-133l-170 -124l-144 115v468l46 51h220l48 -48v-147h-132v66h-57v-88h65v-132h-65z" />
    <glyph glyph-name="afii10056	" unicode="&#x407;" horiz-adv-x="132" 
d="M46 930v105h-115l14 -18v-87h101zM11 105l118 87l-13 22v681h-101v-771zM176 930v87l15 18h-116v-105h101zM-65 920v93l-24 32h145v-125h-121zM5 126v779h121v-689l17 -26l-148 -109zM65 920v125h146l-25 -32v-93h-121z" />
    <glyph glyph-name="afii10104" unicode="&#x457;" horiz-adv-x="144" 
d="M10 319l112 82v494h-112v-576zM42 931v94h-112v-94h112zM202 931v94h-112v-94h112zM0 905h132v-510l-132 -96v606zM-80 921v114h132v-114h-132zM80 921v114h132v-114h-132z" />
    <glyph glyph-name="glyph177" unicode="&#x43a;" horiz-adv-x="325" 
d="M114 895h-105v-504l105 -67v259l77 -48v-216l112 82v186l-83 47l83 46v215h-112v-168l-77 -46v214zM124 699l57 34v172h132v-231l-73 -40l73 -41v-198l-132 -96v230l-57 36v-259l-125 79v520h125v-206z" />
    <glyph glyph-name="quotedblleft" unicode="&#x201c;" horiz-adv-x="283" 
d="M261 696l-10 44v155h-102v-89l-10 -15zM121 696l-10 44v155h-102v-89l-10 -15zM126 789l13 19v97h122v-163l17 -72zM-14 789l13 19v97h122v-163l17 -72z" />
    <glyph glyph-name="quotedblright" unicode="&#x201d;" horiz-adv-x="283" 
d="M125 791l-10 15v89h-102v-155l-11 -44zM265 791l-10 15v89h-102v-155l-11 -44zM-14 670l17 72v163h122v-97l13 -19zM126 670l17 72v163h122v-97l13 -19z" />
    <glyph glyph-name="quoteleft" unicode="&#x2018;" horiz-adv-x="150" 
d="M2 887l11 -44v-155h102v89l10 15zM138 794l-13 -19v-97h-122v163l-17 72z" />
    <glyph glyph-name="quoteright" unicode="&#x2019;" horiz-adv-x="150" 
d="M125 791l-10 15v89h-102v-155l-11 -44zM-14 670l17 72v163h122v-97l13 -19z" />
    <glyph glyph-name="quotedblbase" unicode="&#x201e;" horiz-adv-x="283" 
d="M125 361l-10 15v89h-102v-155l-11 -44zM265 361l-10 15v89h-102v-155l-11 -44zM-14 240l17 72v163h122v-97l13 -19zM126 240l17 72v163h122v-97l13 -19z" />
    <glyph glyph-name="afii10062" unicode="&#x40e;" 
d="M115 389v60h-100v-273l-10 -44l307 245v-1l-3 -3l-7 6v516h-107v-343l-80 45v298h-114l14 -18v-339l177 -90zM290 936v71l15 19h-289l14 -19v-71h260zM173 446l-168 86v341l-25 32h145v-302l60 -33v335h127v-522l12 -10l-22 -17v1l-314 -251l17 72v281h120v-50zM20 926
v77l-23 33h327l-24 -33v-77h-280z" />
    <glyph glyph-name="afii10110" unicode="&#x45e;" horiz-adv-x="325" 
d="M303 895h-112v-190h-77v190h-105v-319h182v-175l-77 66v50h-105v-127l134 -107l160 118v494zM300 930v109h-288v-109h288zM313 395l-170 -124l-144 115v141h125v-56l57 -48v143h-182v339h125v-190h57v190h132v-510zM2 920v129h308v-129h-308z" />
    <glyph glyph-name="afii10145" unicode="&#x40f;" 
d="M114 63l108 84v151l80 71v526h-100v-450l-87 -63v513h-114l14 -18v-736v-2l99 80v-156zM104 199l-114 -92l15 36v730l-25 32h145v-503l67 49v454h120v-540l-80 -71v-151l-128 -100v156z" />
    <glyph glyph-name="afii10193" unicode="&#x45f;" horiz-adv-x="326" 
d="M104 243l52 -42l51 40v89l97 71v494h-112v-494l-77 66v428h-105v-505l94 -75v-72zM94 311l-94 75v519h125v-434l57 -48v482h132v-510l-97 -71v-87l-61 -48l-62 50v72z" />
    <glyph glyph-name="afii61352" unicode="&#x2116;" horiz-adv-x="529" 
d="M199 304l104 83v508h-105v-219l-74 219h-115v-505l112 -84v255zM351 781v-94h114v94h-114zM323 641v-83h182v83h-182zM131 493v-207l-132 100v519h133l56 -167v167h125v-522l-120 -95zM475 791v-114h-134v114h134zM515 651v-103h-202v103h202z" />
    <glyph glyph-name="afii10023" unicode="&#x401;" 
d="M302 489h-110v-44l-77 -56v168h115v108h-115v122h77v-24h110v93l-64 39h-237l14 -18v-701l-10 -44l307 245v-1l-3 -3l-7 6v110zM188 936h102v71l15 19h-117v-90zM136 1026h-120l14 -19v-71h106v90zM312 383l12 -10l-22 -17v1l-314 -251l17 72v695l-25 32h261l71 -43v-109
h-130v24h-57v-102h115v-128h-115v-138l57 42v48h130v-116zM178 1036h146l-24 -33v-77h-122v110zM146 926h-126v77l-23 33h149v-110z" />
    <glyph glyph-name="afii10071" unicode="&#x451;" horiz-adv-x="325" 
d="M179 566v112h-65v108h77v-66h112v133l-42 42h-212l-40 -45v-460l134 -107l160 118v117h-112v-117l-77 66v99h65zM179 930h111v109h-111v-109zM128 1039h-106v-109h106v109zM124 556v-85l57 -48v105h132v-133l-170 -124l-144 115v468l46 51h220l48 -48v-147h-132v66h-57
v-88h65v-132h-65zM169 1049h131v-129h-131v129zM138 920h-126v129h126v-129z" />
    <glyph glyph-name="afii10097" unicode="&#x44f;" horiz-adv-x="325" 
d="M44 895l-35 -44v-171l83 -46l-83 -47v-186l112 -82v216l77 48v-259l105 67v467l-28 37h-231zM131 782v-49l57 -34v83h-57zM279 905l34 -43v-477l-125 -79v259l-57 -36v-230l-132 96v198l73 41l-73 40v181l41 50h239zM198 792v-111l-77 46v65h77z" />
    <glyph glyph-name="afii10065" unicode="&#x430;" horiz-adv-x="325" 
d="M181 615v161h-57v-161h57zM191 496v-190l112 84v463l-42 42h-212l-40 -45v-460l105 -84v190h77zM114 605v181h77v-181h-77zM124 486v-200l-125 100v468l46 51h220l48 -48v-471l-132 -100v200h-57z" />
    <glyph glyph-name="afii10066" unicode="&#x431;" horiz-adv-x="325" 
d="M124 565v-94l57 -48v106zM9 390l134 -107l160 118v186l-189 110v89h189v109h-294v-505zM191 535v-134l-77 66v116zM-1 905h314v-129h-189v-73l189 -110v-198l-170 -124l-144 115v519z" />
    <glyph glyph-name="afii10067" unicode="&#x432;" horiz-adv-x="325" 
d="M181 733v43h-57v-77zM220 634l83 46v173l-42 42h-212l-40 -45v-460l134 -107l160 118v186zM124 565v-94l57 -48v106zM114 681v105h77v-59zM313 593v-198l-170 -124l-144 115v468l46 51h220l48 -48v-183l-73 -40zM191 535v-134l-77 66v116z" />
    <glyph glyph-name="afii10069" unicode="&#x434;" horiz-adv-x="404" 
d="M222 511v245h-37l-20 -25v-220h57zM272 391v-85l112 84v83h-40v422h-230l-64 -73v-349h-40v-83l105 -84v85h157zM155 501v234l26 31h51v-265h-77zM125 381v-95l-125 100v97h40v343l70 79h244v-422h40v-97l-132 -100v95h-137z" />
    <glyph glyph-name="afii10070" unicode="&#x435;" horiz-adv-x="325" 
d="M179 566v112h-65v108h77v-66h112v133l-42 42h-212l-40 -45v-460l134 -107l160 118v117h-112v-117l-77 66v99h65zM124 556v-85l57 -48v105h132v-133l-170 -124l-144 115v468l46 51h220l48 -48v-147h-132v66h-57v-88h65v-132h-65z" />
    <glyph glyph-name="afii10072" unicode="&#x436;" horiz-adv-x="446" 
d="M302 351l112 50v187l-50 46l50 45v216h-112v-177l-37 -41v218h-106v-208l-37 41v167h-112v-216l50 -45l-50 -46v-186l112 -51v183l37 44v-244l51 -23l55 22v252l37 -31v-203zM292 550l-17 13v-236l-65 -26l-61 27v222l-17 -20v-195l-132 61v196l46 42l-46 41v230h132
v-173l17 -19v192h126v-202l17 19v183h132v-230l-46 -41l46 -42v-197l-132 -60v215z" />
    <glyph glyph-name="afii10073" unicode="&#x437;" horiz-adv-x="325" 
d="M114 762v24h77v-59l-52 -31v-128l52 -33v-134l-77 66v11h-105v-88l134 -107l160 118v186l-83 47l83 46v173l-42 42h-212l-40 -45v-88h105zM-1 752v102l46 51h220l48 -48v-183l-73 -40l73 -41v-198l-170 -124l-144 115v102h125v-17l57 -48v106l-52 33v140l52 31v43h-57
v-24h-125z" />
    <glyph glyph-name="afii10074" unicode="&#x438;" horiz-adv-x="325" 
d="M191 561v-255l112 84v505h-115l-74 -219v219h-105v-508l104 -83zM119 288l-120 95v522h125v-167l56 167h133v-519l-132 -100v207z" />
    <glyph glyph-name="afii10075" unicode="&#x439;" horiz-adv-x="325" 
d="M191 561v-255l112 84v505h-115l-74 -219v219h-105v-508l104 -83zM300 930v109h-288v-109h288zM119 288l-120 95v522h125v-167l56 167h133v-519l-132 -100v207zM2 920v129h308v-129h-308z" />
    <glyph glyph-name="afii10077" unicode="&#x43b;" horiz-adv-x="325" 
d="M140 766h51v-460l112 84v505h-230l-64 -73v-432l105 -84v429zM124 731v-445l-125 100v440l70 79h244v-519l-132 -100v470h-37z" />
    <glyph glyph-name="afii10078" unicode="&#x43c;" horiz-adv-x="446" 
d="M207 706l-83 189h-114v-494l112 -82v298l95 -209l85 214v-303l112 82v494h-114zM294 905h130v-510l-132 -96v271l-75 -188l-85 189v-272l-132 96v510h130l77 -175z" />
    <glyph glyph-name="afii10079" unicode="&#x43d;" horiz-adv-x="325" 
d="M191 675h-77v220h-105v-505l105 -84v240h77v-240l112 84v505h-112v-220zM181 905h132v-519l-132 -100v250h-57v-250l-125 100v519h125v-220h57v220z" />
    <glyph glyph-name="afii10080" unicode="&#x43e;" horiz-adv-x="325" 
d="M49 895l-40 -45v-460l134 -107l160 118v452l-42 42h-212zM124 776v-305l57 -48v353h-57zM265 905l48 -48v-462l-170 -124l-144 115v468l46 51h220zM191 786v-385l-77 66v319h77z" />
    <glyph glyph-name="afii10081" unicode="&#x43f;" horiz-adv-x="325" 
d="M9 895v-505l105 -84v460h77v-460l112 84v505h-294zM313 905v-519l-132 -100v470h-57v-470l-125 100v519h314z" />
    <glyph glyph-name="afii10082" unicode="&#x440;" horiz-adv-x="325" 
d="M131 782v-122l57 43v79h-57zM46 895l-37 -43v-462l112 -84v193l182 132v223l-44 41h-213zM198 792v-95l-77 -57v152h77zM263 905l50 -47v-233l-182 -132v-207l-132 100v470l43 49h221z" />
    <glyph glyph-name="afii10083" unicode="&#x441;" horiz-adv-x="325" 
d="M303 720v133l-42 42h-212l-40 -45v-460l134 -107l160 118v117h-112v-117l-77 66v319h77v-66h112zM181 710v66h-57v-305l57 -48v105h132v-133l-170 -124l-144 115v468l46 51h220l48 -48v-147h-132z" />
    <glyph glyph-name="afii10084" unicode="&#x442;" horiz-adv-x="320" 
d="M296 766v129h-287v-129h87v-460l112 84v376h88zM218 756v-370l-132 -100v470h-87v149h307v-149h-88z" />
    <glyph glyph-name="afii10085" unicode="&#x443;" horiz-adv-x="325" 
d="M303 895h-112v-190h-77v190h-105v-319h182v-175l-77 66v50h-105v-127l134 -107l160 118v494zM313 395l-170 -124l-144 115v141h125v-56l57 -48v143h-182v339h125v-190h57v190h132v-510z" />
    <glyph glyph-name="afii10086" unicode="&#x444;" horiz-adv-x="509" 
d="M183 782h-57v-79l57 -43v122zM315 660l57 43v79h-57v-122zM55 895l-44 -41v-223l182 -132v-109l112 -84v193l182 132v223l-44 41h-388zM193 640l-77 57v95h77v-152zM305 792h77v-95l-77 -57v152zM447 905l50 -47v-233l-182 -132v-207l-132 100v107l-182 132v233l50 47
h396z" />
    <glyph glyph-name="afii10087" unicode="&#x445;" horiz-adv-x="332" 
d="M122 727v168h-112v-215l83 -46l-83 -47v-186l112 -82v216l38 24l38 -24v-216l112 82v186l-83 47l83 46v215h-112v-168l-38 -23zM160 716l28 17v172h132v-231l-73 -40l73 -41v-198l-132 -96v230l-28 18l-28 -18v-230l-132 96v198l73 41l-73 40v231h132v-172z" />
    <glyph glyph-name="afii10088" unicode="&#x446;" horiz-adv-x="325" 
d="M303 280v615h-112v-494l-77 66v428h-105v-505l134 -107l97 71zM238 340l-95 -69l-144 115v519h125v-434l57 -48v482h132v-651z" />
    <glyph glyph-name="afii10089" unicode="&#x447;" horiz-adv-x="325" 
d="M191 650l-77 57v188h-105v-254l182 -132v-203l112 84v505h-112v-245zM181 905h132v-519l-132 -100v217l-182 132v270h125v-192l57 -43v235z" />
    <glyph glyph-name="afii10090" unicode="&#x448;" horiz-adv-x="446" 
d="M210 311l204 90v494h-112v-411l-37 -14v425h-106v-425l-37 12v413h-112v-493zM0 396v509h132v-415l17 -6v421h126v-421l17 6v415h132v-510l-214 -94z" />
    <glyph glyph-name="afii10091" unicode="&#x449;" horiz-adv-x="446" 
d="M414 280v615h-112v-411l-37 -14v425h-106v-425l-37 12v413h-112v-493l200 -91l128 57zM336 356l-126 -55l-210 95v509h132v-415l17 -6v421h126v-421l17 6v415h132v-651z" />
    <glyph glyph-name="afii10092" unicode="&#x44a;" horiz-adv-x="395" 
d="M194 565v-94l57 -48v106zM333 371l40 30v186l-189 110l-1 198h-134l-40 -45v-88h70v-372l134 -107zM261 535v-134l-77 66v116zM213 271l-144 115v366h-70v102l46 51h148l1 -202l189 -110v-198l-44 -32z" />
    <glyph glyph-name="afii10093" unicode="&#x44b;" horiz-adv-x="446" 
d="M302 352l112 49v494h-112v-543zM132 617v-127l17 -6v124zM265 663l-143 84v148h-112v-492l255 -54v314zM292 905h132v-510l-132 -59v569zM159 614v-144l-37 12v151zM275 337l-275 58v510h132v-152l143 -84v-332z" />
    <glyph glyph-name="afii10094" unicode="&#x44c;" horiz-adv-x="325" 
d="M124 565v-94l57 -48v106zM9 390l134 -107l160 118v186l-189 110l-1 198h-104v-505zM191 535v-134l-77 66v116zM-1 905h124l1 -202l189 -110v-198l-170 -124l-144 115v519z" />
    <glyph glyph-name="afii10095" unicode="&#x44d;" horiz-adv-x="325" 
d="M198 566v-176l-77 60v68h-112v-117l160 -118l134 107v460l-40 45h-212l-42 -42v-133h112v66h77v-108h-65v-112h65zM123 556v132h65v88h-57v-66h-132v147l48 48h220l46 -51v-468l-144 -115l-170 124v133h132v-74l57 -44v146h-65z" />
    <glyph glyph-name="afii10096" unicode="&#x44e;" horiz-adv-x="430" 
d="M254 776v-325l27 -27v352h-27zM139 390l105 -106l159 117v452l-42 42h-182l-40 -45v-175h-25v220h-105v-505l105 -102v258h25v-156zM291 786v-386l-47 47v339h47zM129 536h-5v-272l-125 122v519h125v-220h5v169l46 51h190l48 -48v-462l-171 -125l-113 116v150z" />
    <glyph glyph-name="Dabble De" unicode="&#x26;" horiz-adv-x="349" 
d="M14 401l-125 -99h240l-6 4v-4h77v4l-5 -4h118v1h128l-129 102v490h-229l-65 -73v-421h-4zM190 411v345h-36l-21 -25v-320h57zM8 411v415l70 79h244v-496l148 -116h-147v-1h-125l-8 -6v6h-57v-6l-8 6h-265l151 119h-3zM123 401v334l26 31h51v-365h-77z" />
  </font>
</defs>
</svg>
